HIERARCHY
ROOT Hips
{
	OFFSET 0.00000 0.00000 0.00000
	CHANNELS 6 Xposition Yposition Zposition Zrotation Yrotation Xrotation 
	JOINT LHipJoint
	{
		OFFSET 0 0 0
		CHANNELS 3 Zrotation Yrotation Xrotation
		JOINT LeftUpLeg
		{
			OFFSET 1.48416 -1.82041 0.59464
			CHANNELS 3 Zrotation Yrotation Xrotation
			JOINT LeftLeg
			{
				OFFSET 2.43280 -6.68407 0.00000
				CHANNELS 3 Zrotation Yrotation Xrotation
				JOINT LeftFoot
				{
					OFFSET 2.68325 -7.37216 0.00000
					CHANNELS 3 Zrotation Yrotation Xrotation
					JOINT LeftToeBase
					{
						OFFSET 0.15365 -0.42214 1.91990
						CHANNELS 3 Zrotation Yrotation Xrotation
						End Site
						{
							OFFSET 0.00000 -0.00000 0.99320
						}
					}
				}
			}
		}
	}
	JOINT RHipJoint
	{
		OFFSET 0 0 0
		CHANNELS 3 Zrotation Yrotation Xrotation
		JOINT RightUpLeg
		{
			OFFSET -1.70852 -1.82040 0.59464
			CHANNELS 3 Zrotation Yrotation Xrotation
			JOINT RightLeg
			{
				OFFSET -2.50396 -6.87957 0.00000
				CHANNELS 3 Zrotation Yrotation Xrotation
				JOINT RightFoot
				{
					OFFSET -2.67204 -7.34139 0.00000
					CHANNELS 3 Zrotation Yrotation Xrotation
					JOINT RightToeBase
					{
						OFFSET -0.17346 -0.47657 2.02009
						CHANNELS 3 Zrotation Yrotation Xrotation
						End Site
						{
							OFFSET -0.00000 -0.00000 1.04609
						}
					}
				}
			}
		}
	}
	JOINT LowerBack
	{
		OFFSET 0 0 0
		CHANNELS 3 Zrotation Yrotation Xrotation
		JOINT Spine
		{
			OFFSET -0.01022 1.99636 -0.30653
			CHANNELS 3 Zrotation Yrotation Xrotation
			JOINT Spine1
			{
				OFFSET -0.01683 2.01212 0.04808
				CHANNELS 3 Zrotation Yrotation Xrotation
				JOINT Neck
				{
					OFFSET 0 0 0
					CHANNELS 3 Zrotation Yrotation Xrotation
					JOINT Neck1
					{
						OFFSET -0.03080 1.91178 0.03911
						CHANNELS 3 Zrotation Yrotation Xrotation
						JOINT Head
						{
							OFFSET 0.10605 1.89839 -0.23433
							CHANNELS 3 Zrotation Yrotation Xrotation
							End Site
							{
								OFFSET 0.03474 1.92469 -0.08609
							}
						}
					}
				}
				JOINT LeftShoulder
				{
					OFFSET 0 0 0
					CHANNELS 3 Zrotation Yrotation Xrotation
					JOINT LeftArm
					{
						OFFSET 3.78977 1.27972 -0.24661
						CHANNELS 3 Zrotation Yrotation Xrotation
						JOINT LeftForeArm
						{
							OFFSET 5.64147 -0.00000 -0.00000
							CHANNELS 3 Zrotation Yrotation Xrotation
							JOINT LeftHand
							{
								OFFSET 2.86444 -0.00000 -0.00000
								CHANNELS 3 Zrotation Yrotation Xrotation
								JOINT LeftFingerBase
								{
									OFFSET 0 0 0
									CHANNELS 3 Zrotation Yrotation Xrotation
									JOINT LeftHandIndex1
									{
										OFFSET 0.72212 -0.00000 -0.00000
										CHANNELS 3 Zrotation Yrotation Xrotation
										End Site
										{
											OFFSET 0.58219 -0.00000 -0.00000
										}
									}
								}
								JOINT LThumb
								{
									OFFSET 0 0 0
									CHANNELS 3 Zrotation Yrotation Xrotation
									End Site
									{
										OFFSET 0.59108 -0.00000 0.59108
									}
								}
							}
						}
					}
				}
				JOINT RightShoulder
				{
					OFFSET 0 0 0
					CHANNELS 3 Zrotation Yrotation Xrotation
					JOINT RightArm
					{
						OFFSET -3.41176 1.18605 -0.57927
						CHANNELS 3 Zrotation Yrotation Xrotation
						JOINT RightForeArm
						{
							OFFSET -5.44729 -0.00000 -0.00000
							CHANNELS 3 Zrotation Yrotation Xrotation
							JOINT RightHand
							{
								OFFSET -3.08821 -0.00000 -0.00000
								CHANNELS 3 Zrotation Yrotation Xrotation
								JOINT RightFingerBase
								{
									OFFSET 0 0 0
									CHANNELS 3 Zrotation Yrotation Xrotation
									JOINT RightHandIndex1
									{
										OFFSET -0.82105 -0.00000 -0.00000
										CHANNELS 3 Zrotation Yrotation Xrotation
										End Site
										{
											OFFSET -0.66195 -0.00000 -0.00000
										}
									}
								}
								JOINT RThumb
								{
									OFFSET 0 0 0
									CHANNELS 3 Zrotation Yrotation Xrotation
									End Site
									{
										OFFSET -0.67206 -0.00000 0.67206
									}
								}
							}
						}
					}
				}
			}
		}
	}
}
MOTION
Frames: 13
Frame Time: .0083333
11.4790 17.4073 12.4520 -10.3322 66.4478 -7.8990 0.0000 0.0000 0.0000 -20.8086 0.0584 -10.0231 1.6292 8.0468 22.8563 -1.6300 -23.6918 -0.8099 0.9013 6.0504 16.9306 0.0000 0.0000 0.0000 16.4116 21.6841 -11.7612 -2.3041 -9.4726 27.2852 1.0988 23.0205 -6.6761 -0.4467 4.2879 -11.8882 -0.0805 -0.4289 -1.5012 -1.8322 -0.4693 3.3522 -1.8689 -0.1891 4.2808 -0.3270 2.4825 -3.8544 -2.9264 3.9678 14.3376 -0.6297 1.8126 4.9921 0.0000 -0.0000 0.0000 -85.0158 -12.4887 39.4338 13.8399 -22.5054 -2.7665 -0.0000 0.0000 -30.5293 12.1945 10.5419 2.2642 -7.1250 0.0000 -0.0000 -13.0495 40.4145 1.5046 0.0000 -0.0000 0.0000 91.0685 -3.0843 17.9733 -15.4487 24.7675 -3.4117 0.0000 0.0000 15.4409 -7.0068 9.0986 -1.1134 7.1250 -0.0000 -0.0000 14.2311 -20.9239 8.4709
11.4894 17.4145 12.4794 -10.8816 67.4648 -8.3900 0.0000 0.0000 0.0000 -20.6393 -0.1361 -9.9216 1.6113 8.0045 22.7279 -1.7389 -24.1851 -0.2224 0.8306 5.8143 16.2467 0.0000 0.0000 0.0000 16.3736 21.6493 -11.9927 -2.2671 -9.4015 27.0595 1.2355 23.5067 -5.8407 -0.4051 4.0860 -11.3187 -0.0680 -0.4287 -1.4880 -1.8482 -0.4686 3.3452 -1.8922 -0.1879 4.2659 -0.1954 2.4517 -3.6901 -3.1453 3.9376 14.1558 -0.7239 1.7966 4.9145 -0.0000 0.0000 0.0000 -85.0018 -12.5669 39.2453 13.6385 -22.2156 -2.6899 -0.0000 0.0000 -30.2491 11.9686 10.6759 2.2489 -7.1250 0.0000 -0.0000 -13.2748 40.5281 1.4937 -0.0000 0.0000 0.0000 91.1062 -3.0443 17.8121 -15.3834 24.6775 -3.3844 0.0000 0.0000 15.6513 -6.8857 9.2530 -1.1124 7.1250 -0.0000 -0.0000 14.3038 -20.7765 8.5663
11.5058 17.4276 12.5084 -11.6620 68.4835 -9.1152 0.0000 0.0000 0.0000 -20.4055 -0.3389 -9.7797 1.5909 7.9562 22.5812 -1.8439 -24.6135 0.4510 0.7985 5.7035 15.9266 0.0000 0.0000 0.0000 16.4087 21.8169 -12.1252 -2.2367 -9.3427 26.8734 1.3561 23.8689 -4.9978 -0.2890 3.4572 -9.5542 0.0397 -0.4242 -1.5160 -1.8399 -0.4665 3.3407 -1.9442 -0.1833 4.2763 -0.1778 2.4373 -3.6028 -3.2362 3.9315 14.1326 -0.7564 1.7922 4.8946 0.0000 -0.0000 0.0000 -85.0171 -12.6364 38.9963 13.4493 -21.9420 -2.6188 -0.0000 0.0000 -29.9878 11.8743 10.5495 2.2046 -7.1250 0.0000 -0.0000 -13.3261 40.3948 1.5444 0.0000 -0.0000 0.0000 91.1150 -3.0112 17.6289 -15.3271 24.5997 -3.3609 0.0000 0.0000 15.9294 -6.8171 9.3319 -1.1105 7.1250 -0.0000 -0.0000 14.3456 -20.7014 8.6181
11.5222 17.4423 12.5346 -12.4888 69.5254 -9.8425 0.0000 0.0000 0.0000 -20.1938 -0.6704 -9.6959 1.5784 7.9264 22.4908 -1.9554 -25.0319 1.2692 0.9120 6.0852 17.0318 0.0000 0.0000 0.0000 16.3905 22.0413 -12.2866 -2.2070 -9.2846 26.6897 1.4519 24.1435 -4.2939 -0.2244 3.0490 -8.4152 0.1698 -0.4161 -1.5842 -1.8403 -0.4601 3.3337 -2.0180 -0.1757 4.3072 -0.1663 2.4219 -3.6277 -3.2724 3.9230 14.2116 -0.7690 1.7869 4.9240 0.0000 0.0000 0.0000 -85.0014 -12.7308 39.1388 13.2680 -21.6786 -2.5514 -0.0000 0.0000 -30.0039 12.1692 10.1845 2.1836 -7.1250 0.0000 -0.0000 -12.9894 40.0572 1.6140 0.0000 0.0000 0.0000 91.0871 -3.0151 17.6830 -15.3238 24.5952 -3.3596 0.0000 0.0000 15.8608 -6.9291 9.3316 -1.1289 7.1250 -0.0000 -0.0000 14.2671 -20.6987 8.5688
11.5385 17.4448 12.5611 -13.0892 70.4545 -10.3825 0.0000 0.0000 0.0000 -20.0842 -0.9730 -9.6368 1.5733 7.9141 22.4535 -2.0419 -25.3854 1.8094 0.9758 6.2885 17.6237 0.0000 0.0000 0.0000 16.3412 22.1092 -12.4702 -2.1783 -9.2280 26.5113 1.5885 24.5597 -3.3167 -0.1789 2.7241 -7.5117 0.1945 -0.3930 -1.6547 -1.8601 -0.4279 3.3456 -2.0516 -0.1578 4.3606 -0.1204 2.4404 -3.7304 -3.3134 3.9591 14.3098 -0.7850 1.8032 4.9739 0.0000 -0.0000 0.0000 -84.9262 -12.7630 39.5457 13.1100 -21.4481 -2.4933 -0.0000 0.0000 -30.6149 12.6572 9.5397 2.1315 -7.1250 0.0000 -0.0000 -12.4310 39.4545 1.7300 0.0000 -0.0000 0.0000 91.0655 -3.0034 17.7659 -15.3056 24.5701 -3.3520 0.0000 0.0000 15.6645 -7.1324 9.4035 -1.1712 7.1250 -0.0000 -0.0000 14.1185 -20.6225 8.4990
11.5591 17.4334 12.5906 -13.8844 71.3025 -11.2871 0.0000 0.0000 0.0000 -19.9066 -1.1538 -9.3958 1.5742 7.9163 22.4602 -2.1284 -25.7581 2.2679 0.9629 6.2481 17.5058 0.0000 0.0000 0.0000 16.5061 22.0235 -12.4067 -2.1529 -9.1775 26.3521 1.7133 25.0142 -2.5625 -0.1851 2.7707 -7.6411 0.2667 -0.3388 -1.6281 -1.8422 -0.3566 3.4214 -2.0703 -0.1187 4.4268 -0.1486 2.4557 -3.8077 -3.3458 3.9932 14.3557 -0.7870 1.8162 5.0020 -0.0000 -0.0000 0.0000 -84.9335 -12.7520 39.8283 12.9412 -21.2011 -2.4320 -0.0000 0.0000 -31.1874 13.3268 8.7617 2.0665 -7.1250 0.0000 -0.0000 -11.7022 38.7267 1.8381 -0.0000 -0.0000 0.0000 91.0366 -2.9893 17.7899 -15.3105 24.5769 -3.3540 0.0000 0.0000 15.4435 -7.2578 9.3385 -1.1839 7.1250 -0.0000 -0.0000 14.0354 -20.6823 8.4263
11.5779 17.4264 12.6215 -14.3986 72.3013 -11.8950 0.0000 0.0000 0.0000 -19.8684 -1.3800 -9.2396 1.5856 7.9435 22.5425 -2.2391 -26.2164 2.8959 0.9801 6.3018 17.6627 0.0000 0.0000 0.0000 16.4905 21.9210 -12.3744 -2.1273 -9.1263 26.1911 1.8159 25.4420 -2.0696 -0.2196 3.0170 -8.3260 0.1770 -0.3082 -1.6448 -1.8591 -0.3083 3.4885 -2.0355 -0.0957 4.5084 -0.1711 2.4232 -3.7854 -3.4084 3.9613 14.3197 -0.8048 1.7978 4.9874 0.0000 -0.0000 0.0000 -84.9330 -12.7873 39.9035 12.7600 -20.9345 -2.3668 -0.0000 0.0000 -31.0374 13.7714 8.7847 2.1436 -7.1250 0.0000 -0.0000 -11.3300 38.7825 1.7620 0.0000 -0.0000 0.0000 91.0022 -2.9780 17.8889 -15.3572 24.6414 -3.3735 0.0000 0.0000 15.2193 -7.3485 9.0302 -1.1596 7.1250 -0.0000 -0.0000 13.9958 -20.9811 8.3033
11.5929 17.4271 12.6508 -14.6629 73.4312 -12.1759 0.0000 0.0000 0.0000 -19.9533 -1.6914 -9.2249 1.6023 7.9834 22.6637 -2.3652 -26.7142 3.6804 1.0411 6.4890 18.2102 0.0000 0.0000 0.0000 16.2681 21.8163 -12.4380 -2.1031 -9.0775 26.0382 1.8948 25.9263 -2.0535 -0.2751 3.3737 -9.3208 -0.0452 -0.3073 -1.6543 -1.9025 -0.2948 3.4919 -1.9549 -0.0952 4.5187 -0.1334 2.3978 -3.6658 -3.4879 3.9350 14.2631 -0.8389 1.7861 4.9515 -0.0000 0.0000 0.0000 -84.9683 -12.8279 39.6949 12.5595 -20.6383 -2.2957 -0.0000 0.0000 -30.4383 13.8902 9.1684 2.2565 -7.1250 0.0000 -0.0000 -11.3044 39.1777 1.6463 -0.0000 0.0000 0.0000 90.9542 -3.0205 17.9458 -15.4333 24.7462 -3.4052 0.0000 0.0000 15.2598 -7.2540 8.7420 -1.1083 7.1250 -0.0000 -0.0000 14.0857 -21.2654 8.2662
11.6080 17.4224 12.6786 -15.2426 74.5366 -12.7529 0.0000 0.0000 0.0000 -19.9640 -2.0081 -9.1687 1.6094 8.0001 22.7144 -2.4763 -27.1237 4.4928 1.1073 6.6857 18.7875 0.0000 0.0000 0.0000 16.1212 21.6133 -12.5312 -2.0896 -9.0503 25.9529 1.9813 26.6412 -2.4708 -0.3977 4.0492 -11.2151 -0.1494 -0.3155 -1.5805 -1.9267 -0.3018 3.4477 -1.9207 -0.1022 4.4308 -0.1019 2.4051 -3.5508 -3.5267 3.9521 14.2688 -0.8565 1.7973 4.9353 0.0000 0.0000 0.0000 -85.0218 -12.8130 39.3429 12.3295 -20.2970 -2.2153 -0.0000 0.0000 -30.0171 13.6425 8.5330 2.0625 -7.1250 0.0000 -0.0000 -11.3905 38.5198 1.8464 0.0000 0.0000 0.0000 90.8353 -3.1262 18.1666 -15.5015 24.8401 -3.4339 0.0000 0.0000 15.2481 -7.1357 8.4441 -1.0532 7.1250 -0.0000 -0.0000 14.1941 -21.5594 8.2359
11.6187 17.4166 12.7042 -16.3428 75.5964 -13.8124 0.0000 0.0000 0.0000 -19.8551 -2.2956 -9.1445 1.6128 8.0082 22.7390 -2.5779 -27.5134 5.1557 1.1437 6.7910 19.0975 0.0000 0.0000 0.0000 16.0974 21.4837 -12.6493 -2.0820 -9.0349 25.9047 2.0358 27.0719 -2.7002 -0.5078 4.5678 -12.6798 -0.1088 -0.3284 -1.4681 -1.9522 -0.3213 3.4014 -1.9695 -0.1106 4.3178 0.0075 2.4219 -3.5736 -3.6051 3.9855 14.3494 -0.8959 1.8151 4.9682 0.0000 0.0000 0.0000 -84.9977 -12.7833 38.8125 12.1067 -19.9645 -2.1386 -0.0000 0.0000 -29.6802 13.3290 7.9822 1.8844 -7.1250 0.0000 -0.0000 -11.5498 37.9441 2.0390 0.0000 0.0000 0.0000 90.7522 -3.1775 18.4481 -15.5138 24.8570 -3.4390 0.0000 0.0000 15.1032 -7.0583 8.3540 -1.0306 7.1250 -0.0000 -0.0000 14.2567 -21.6492 8.2444
11.6281 17.4172 12.7304 -17.3820 76.6724 -14.7970 0.0000 0.0000 0.0000 -19.8085 -2.5769 -9.1677 1.6173 8.0189 22.7714 -2.6920 -27.9389 5.9638 1.2031 6.9591 19.5941 0.0000 0.0000 0.0000 16.0152 21.4066 -12.7713 -2.0753 -9.0213 25.8619 2.0794 27.1849 -2.3973 -0.5084 4.5706 -12.6878 -0.1419 -0.3251 -1.3983 -1.9869 -0.3152 3.3671 -1.9854 -0.1082 4.2427 0.1020 2.3982 -3.5593 -3.7492 3.9676 14.3204 -0.9571 1.8047 4.9610 -0.0000 -0.0000 0.0000 -84.8990 -12.7181 38.6046 11.9775 -19.7709 -2.0947 -0.0000 0.0000 -29.4995 13.1918 7.9983 1.8680 -7.1250 0.0000 -0.0000 -11.6681 37.9510 2.0586 -0.0000 -0.0000 0.0000 90.7553 -3.1704 18.3677 -15.4879 24.8214 -3.4282 0.0000 0.0000 15.1170 -6.9414 8.0534 -0.9772 7.1250 -0.0000 -0.0000 14.3658 -21.9453 8.2114
11.6452 17.4198 12.7599 -18.7433 77.6812 -16.1146 0.0000 0.0000 0.0000 -19.7066 -2.7877 -9.1526 1.6173 8.0187 22.7709 -2.7959 -28.2980 6.9110 1.2916 7.2010 20.3123 0.0000 0.0000 0.0000 16.0115 21.2749 -12.8560 -2.0683 -9.0070 25.8171 2.1150 27.3550 -2.3186 -0.5869 4.9053 -13.6386 -0.1478 -0.2945 -1.3871 -1.9998 -0.2747 3.3159 -1.9929 -0.0885 4.1845 0.2399 2.3552 -3.4879 -3.8775 3.9221 14.3520 -1.0226 1.7847 4.9625 0.0000 0.0000 0.0000 -84.7948 -12.6432 38.6758 11.8398 -19.5640 -2.0483 -0.0000 0.0000 -29.4372 13.1192 8.2042 1.9049 -7.1250 0.0000 -0.0000 -11.7686 38.1526 2.0177 0.0000 0.0000 0.0000 90.7259 -3.2435 18.2796 -15.5041 24.8437 -3.4350 0.0000 0.0000 15.2390 -6.7051 7.3155 -0.8576 7.1250 -0.0000 -0.0000 14.6021 -22.6694 8.1050
11.6663 17.4195 12.7902 -20.2989 78.7037 -17.6627 0.0000 0.0000 0.0000 -19.6245 -3.0545 -9.0242 1.6097 8.0008 22.7165 -2.8718 -28.5413 7.8318 1.4000 7.4851 21.1606 0.0000 0.0000 0.0000 15.9899 21.1784 -12.8678 -2.0638 -8.9978 25.7884 2.1745 27.5377 -1.9693 -0.5412 4.7133 -13.0925 -0.1427 -0.2556 -1.3796 -2.0215 -0.2227 3.2778 -2.0152 -0.0623 4.1422 0.4161 2.3024 -3.3514 -4.0067 3.8597 14.3636 -1.0966 1.7599 4.9469 -0.0000 -0.0000 0.0000 -84.6808 -12.5479 38.7926 11.7220 -19.3864 -2.0091 -0.0000 0.0000 -29.4873 13.1874 8.5351 1.9917 -7.1250 0.0000 -0.0000 -11.7754 38.4893 1.9198 -0.0000 -0.0000 0.0000 90.6928 -3.2979 18.1359 -15.4809 24.8117 -3.4252 0.0000 0.0000 15.4586 -6.8162 7.5168 -0.8958 7.1250 -0.0000 -0.0000 14.5037 -22.4711 8.1150
